<svg xmlns="http://www.w3.org/2000/svg" viewBox="0 0 32 32">
  <rect width="32" height="32" rx="6" fill="#35363a"/>
  <!-- щит -->
  <path fill="none" stroke="#e8eaed" stroke-width="1.6" stroke-linejoin="round" d="M16 5.5l8.5 3.6v7.2c0 4.4-3.4 8.5-8.5 9.9-5.1-1.4-8.5-5.5-8.5-9.9V9.1L16 5.5z"/>
  <!-- лев: грива + морда (упрощённо, как на вкладке) -->
  <path fill="#e8eaed" d="M16 10.5c-2.6 0-4.7 1.3-5.4 3.1.2 1.1.9 2 1.8 2.6-.3.8-.5 1.6-.5 2.4 0 1.2.4 2.3 1.1 3.1.9.3 1.9.5 3 .5s2.1-.2 3-.5c.7-.8 1.1-1.9 1.1-3.1 0-.8-.2-1.6-.5-2.4.9-.6 1.6-1.5 1.8-2.6-.7-1.8-2.8-3.1-5.4-3.1z"/>
  <path fill="#35363a" d="M12.5 13.2h1.1v1h-1.1zm5.9 0h1.1v1h-1.1zm-4.1 2.8h2.4v1.1h-2.4z"/>
</svg>
